<svg version="1.1" id="Layer_1" xmlns="http://www.w3.org/2000/svg" xmlns:xlink="http://www.w3.org/1999/xlink" x="0px" y="0px" viewBox="0 0 985 701" style="enable-background:new 0 0 985 701;" xml:space="preserve"><style type="text/css">
	.st0{fill:#56BDFC;}
	.st1{fill:#0E63C0;}
	.st2{fill:url(#SVGID_1_);}
	.st3{fill:#50BCFF;}
	.st4{fill:url(#SVGID_2_);}
	.st5{fill:url(#SVGID_3_);}
	.st6{fill:url(#SVGID_4_);}
	.st7{fill:#FFFFFF;}
	.st8{font-family:'Arial-BoldMT';}
	.st9{font-size:179.5001px;}
</style><rect x="-1072" y="884.35" class="st0" width="447" height="557.79"></rect><rect x="-625" y="883.61" class="st1" width="447" height="557.79"></rect><g><g><linearGradient id="SVGID_1_" gradientUnits="userSpaceOnUse" x1="-661.0132" y1="178.2442" x2="-520.1904" y2="178.2442"><stop offset="0" style="stop-color:#50BCFF"></stop><stop offset="1" style="stop-color:#0060C2"></stop></linearGradient><path class="st2" d="M-527.29,260.45c-0.68-0.83-1.4-1.63-2.17-2.4l-74.64-74.64c-10.42-10.42-16.16-24.28-16.16-39.01
			c0-14.74,5.74-28.6,16.15-39.01c0.87-0.87,1.76-1.7,2.68-2.5c6.44-5.62,14.19-9.68,22.61-11.83l6.81-1.74
			c-0.01-11.65-0.01-26.47-0.02-30.29l-0.01-10.92l-10.74,2c-19.07,3.56-36.42,12.71-50.17,26.46c-37.41,37.42-37.41,98.3,0,135.73
			l96.11,96.1c1.55-0.84,3.03-1.83,4.43-2.93l0.8-0.69l0.1-0.02c0.7-0.59,1.39-1.2,2.04-1.85
			C-517.87,291.3-517.15,272.89-527.29,260.45z"></path><path class="st3" d="M-449.03,182.19c0.9,0.74,1.84,1.4,2.81,2.03c5.08,3.3,11.01,5.08,17.21,5.08c0,0,0,0,0,0
			c8.45,0,16.41-3.29,22.4-9.26l0.08-0.08c2.2-2.21,4-4.68,5.42-7.3l-96.11-96.11c-10.15-10.16-22.13-17.73-35.59-22.53l-12.13-4.32
			v43.05l4.96,2.52c5.18,2.64,9.86,6.04,13.92,10.1l74.63,74.64c0.75,0.75,1.53,1.45,2.34,2.12
			C-449.08,182.16-449.05,182.17-449.03,182.19z"></path><path class="st3" d="M-576.98,331.03c-5.24-2.68-9.93-6.07-13.93-10.07l-74.63-74.64c-5.99-5.99-13.95-9.28-22.42-9.28
			c-1.05,0-2.08,0.05-3.11,0.15c-0.35,0.03-0.69,0.1-1.03,0.15c-0.68,0.09-1.35,0.17-2.01,0.3c-0.4,0.08-0.79,0.19-1.19,0.29
			c-0.6,0.14-1.2,0.27-1.78,0.44c-0.41,0.12-0.81,0.28-1.22,0.42c-0.55,0.19-1.11,0.37-1.66,0.59c-0.41,0.17-0.8,0.37-1.2,0.55
			c-0.52,0.24-1.05,0.47-1.56,0.73c-0.4,0.21-0.78,0.45-1.17,0.68c-0.49,0.29-0.98,0.56-1.46,0.87c-0.39,0.25-0.75,0.54-1.13,0.81
			c-0.45,0.33-0.91,0.65-1.35,1c-0.37,0.3-0.73,0.63-1.09,0.95c-0.49,0.44-1,0.86-1.47,1.33c-2.24,2.24-4.06,4.74-5.48,7.39
			l96.12,96.12c10.16,10.16,22.14,17.74,35.59,22.53l12.13,4.32v-43.13L-576.98,331.03z"></path><linearGradient id="SVGID_2_" gradientUnits="userSpaceOnUse" x1="-596.7822" y1="248.1422" x2="-455.961" y2="248.1422"><stop offset="0" style="stop-color:#50BCFF"></stop><stop offset="1" style="stop-color:#0060C2"></stop></linearGradient><path class="st4" d="M-496.71,281.95c0,14.74-5.74,28.59-16.16,39.02c-6.95,6.95-15.68,11.92-25.24,14.36l-6.84,1.74v41.24
			l10.75-2.01c19.07-3.56,36.43-12.71,50.18-26.47c37.41-37.42,37.41-98.3,0-135.72l-96.15-96.14c-2.67,1.45-5.14,3.28-7.35,5.48
			c-0.66,0.66-1.27,1.36-1.86,2.06c-0.1,0.12-0.22,0.23-0.32,0.35c-0.47,0.58-0.89,1.19-1.32,1.8c-0.18,0.26-0.39,0.51-0.56,0.77
			c-0.33,0.51-0.62,1.04-0.92,1.56c-0.22,0.38-0.47,0.75-0.67,1.14c-0.22,0.42-0.39,0.85-0.59,1.27c-0.24,0.51-0.5,1.02-0.71,1.54
			c-0.13,0.32-0.22,0.64-0.34,0.97c-0.24,0.64-0.48,1.28-0.67,1.94c-0.08,0.27-0.13,0.55-0.2,0.82c-0.19,0.71-0.38,1.43-0.52,2.15
			c-0.05,0.24-0.06,0.49-0.1,0.73c-0.13,0.76-0.26,1.52-0.33,2.29c-0.03,0.27-0.02,0.54-0.04,0.81c-0.05,0.74-0.1,1.48-0.1,2.23
			c0,0.46,0.05,0.92,0.07,1.38c0.02,0.55,0.03,1.11,0.08,1.66c0.08,0.8,0.21,1.6,0.34,2.4c0.04,0.2,0.05,0.41,0.09,0.61
			c1.16,6,4.05,11.72,8.68,16.36l74.65,74.64C-502.45,253.36-496.71,267.21-496.71,281.95z"></path></g><text transform="matrix(1 0 0 1 -997.4777 629.3276)" class="st8 st9" style="fill:#808080;">skiesbook</text></g><g><g><linearGradient id="SVGID_3_" gradientUnits="userSpaceOnUse" x1="1329.2292" y1="283.9083" x2="1597.4733" y2="283.9083"><stop offset="0" style="stop-color:#50BCFF"></stop><stop offset="1" style="stop-color:#0060C2"></stop></linearGradient><path class="st5" d="M1583.95,440.5c-1.29-1.58-2.67-3.11-4.14-4.58l-142.18-142.17c-19.85-19.85-30.78-46.24-30.78-74.31
			c0-28.08,10.93-54.47,30.77-74.31c1.65-1.65,3.35-3.24,5.1-4.77c12.28-10.71,27.03-18.45,43.06-22.54l12.97-3.31
			c-0.02-22.19-0.03-50.42-0.04-57.7L1498.7,36l-20.45,3.82c-36.33,6.78-69.37,24.21-95.57,50.4c-71.27,71.27-71.27,187.25,0,258.53
			l183.08,183.06c2.96-1.6,5.76-3.49,8.44-5.58l1.53-1.32l0.19-0.05c1.33-1.12,2.65-2.28,3.89-3.52
			C1601.89,499.27,1603.27,464.2,1583.95,440.5z"></path><path class="st3" d="M1733.02,291.42c1.71,1.4,3.51,2.67,5.35,3.87c9.68,6.28,20.96,9.68,32.78,9.68c0,0,0,0,0.01,0
			c16.1,0,31.26-6.27,42.66-17.64l0.15-0.14c4.2-4.22,7.62-8.92,10.31-13.9L1641.22,90.22c-19.34-19.35-42.16-33.78-67.8-42.92
			l-23.11-8.23v82.01l9.44,4.81c9.87,5.03,18.79,11.5,26.52,19.23l142.17,142.18c1.43,1.43,2.91,2.77,4.45,4.03
			C1732.93,291.36,1732.98,291.38,1733.02,291.42z"></path><path class="st3" d="M1489.3,574.94c-9.98-5.11-18.91-11.55-26.54-19.18L1320.6,413.59c-11.41-11.4-26.58-17.69-42.71-17.69
			c-1.99,0-3.97,0.1-5.93,0.29c-0.67,0.06-1.31,0.19-1.97,0.28c-1.29,0.17-2.57,0.32-3.84,0.57c-0.76,0.15-1.5,0.37-2.26,0.55
			c-1.14,0.27-2.28,0.51-3.4,0.85c-0.79,0.24-1.54,0.54-2.32,0.81c-1.05,0.36-2.12,0.71-3.15,1.13c-0.77,0.32-1.53,0.7-2.29,1.06
			c-0.99,0.45-2,0.89-2.97,1.4c-0.76,0.4-1.49,0.86-2.23,1.3c-0.93,0.55-1.88,1.07-2.78,1.67c-0.73,0.48-1.44,1.03-2.16,1.55
			c-0.86,0.62-1.73,1.23-2.57,1.9c-0.71,0.58-1.38,1.2-2.07,1.81c-0.94,0.83-1.9,1.64-2.8,2.54c-4.26,4.26-7.73,9.02-10.44,14.08
			l183.1,183.09c19.35,19.35,42.16,33.79,67.8,42.92l23.11,8.23v-82.16L1489.3,574.94z"></path><linearGradient id="SVGID_4_" gradientUnits="userSpaceOnUse" x1="1451.5787" y1="417.0523" x2="1719.8196" y2="417.0523"><stop offset="0" style="stop-color:#50BCFF"></stop><stop offset="1" style="stop-color:#0060C2"></stop></linearGradient><path class="st6" d="M1642.2,481.45c0,28.07-10.94,54.47-30.79,74.32c-13.24,13.25-29.86,22.7-48.07,27.35l-13.02,3.32V665
			l20.48-3.82c36.33-6.79,69.39-24.22,95.58-50.42c71.27-71.27,71.27-187.25,0-258.52L1483.21,169.1
			c-5.08,2.75-9.79,6.24-13.99,10.44c-1.26,1.26-2.41,2.58-3.54,3.92c-0.19,0.23-0.42,0.44-0.61,0.67c-0.9,1.11-1.7,2.27-2.51,3.42
			c-0.35,0.5-0.74,0.97-1.07,1.47c-0.64,0.97-1.18,1.98-1.75,2.97c-0.42,0.73-0.9,1.44-1.28,2.18c-0.42,0.79-0.75,1.62-1.12,2.43
			c-0.46,0.98-0.96,1.94-1.36,2.94c-0.25,0.61-0.42,1.23-0.65,1.84c-0.45,1.23-0.92,2.44-1.28,3.69c-0.15,0.52-0.24,1.04-0.38,1.57
			c-0.36,1.36-0.73,2.72-0.99,4.09c-0.09,0.46-0.12,0.93-0.2,1.38c-0.25,1.45-0.49,2.9-0.63,4.36c-0.05,0.51-0.04,1.03-0.08,1.55
			c-0.1,1.41-0.2,2.83-0.2,4.24c0,0.88,0.09,1.75,0.13,2.63c0.04,1.05,0.05,2.11,0.15,3.15c0.15,1.53,0.4,3.05,0.65,4.57
			c0.07,0.39,0.1,0.78,0.17,1.17c2.2,11.42,7.72,22.33,16.54,31.16l142.19,142.18C1631.26,426.98,1642.2,453.37,1642.2,481.45z"></path></g></g><g><g><path class="st7" d="M2325.95,440.5c-1.29-1.58-2.67-3.11-4.14-4.58l-142.18-142.17c-19.85-19.85-30.78-46.24-30.78-74.31
			c0-28.08,10.93-54.47,30.77-74.31c1.65-1.65,3.35-3.24,5.1-4.77c12.28-10.71,27.03-18.45,43.06-22.54l12.97-3.31
			c-0.02-22.19-0.03-50.42-0.04-57.7L2240.7,36l-20.45,3.82c-36.33,6.78-69.37,24.21-95.57,50.4c-71.26,71.27-71.26,187.25,0,258.53
			l183.08,183.06c2.96-1.6,5.76-3.49,8.44-5.58l1.53-1.32l0.19-0.05c1.33-1.12,2.65-2.28,3.89-3.52
			C2343.89,499.27,2345.27,464.2,2325.95,440.5z"></path><path class="st7" d="M2475.02,291.42c1.71,1.4,3.51,2.67,5.35,3.87c9.68,6.28,20.96,9.68,32.78,9.68c0,0,0,0,0.01,0
			c16.1,0,31.26-6.27,42.66-17.64l0.15-0.14c4.2-4.22,7.62-8.92,10.31-13.9L2383.22,90.22c-19.34-19.35-42.16-33.78-67.8-42.92
			l-23.11-8.23v82.01l9.44,4.81c9.87,5.03,18.79,11.5,26.52,19.23l142.17,142.18c1.43,1.43,2.91,2.77,4.45,4.03
			C2474.93,291.36,2474.98,291.38,2475.02,291.42z"></path><path class="st7" d="M2231.3,574.94c-9.98-5.11-18.91-11.55-26.54-19.18L2062.6,413.59c-11.41-11.4-26.58-17.69-42.71-17.69
			c-1.99,0-3.97,0.1-5.93,0.29c-0.67,0.06-1.31,0.19-1.97,0.28c-1.29,0.17-2.57,0.32-3.84,0.57c-0.76,0.15-1.5,0.37-2.26,0.55
			c-1.14,0.27-2.28,0.51-3.4,0.85c-0.79,0.24-1.54,0.54-2.32,0.81c-1.05,0.36-2.12,0.71-3.15,1.13c-0.77,0.32-1.53,0.7-2.29,1.06
			c-0.99,0.45-2,0.89-2.97,1.4c-0.76,0.4-1.49,0.86-2.23,1.3c-0.93,0.55-1.88,1.07-2.78,1.67c-0.73,0.48-1.44,1.03-2.16,1.55
			c-0.86,0.62-1.73,1.23-2.57,1.9c-0.71,0.58-1.38,1.2-2.07,1.81c-0.94,0.83-1.9,1.64-2.8,2.54c-4.26,4.26-7.73,9.02-10.44,14.08
			l183.1,183.09c19.35,19.35,42.16,33.79,67.8,42.92l23.11,8.23v-82.16L2231.3,574.94z"></path><path class="st7" d="M2384.2,481.45c0,28.07-10.94,54.47-30.79,74.32c-13.24,13.25-29.86,22.7-48.07,27.35l-13.02,3.32V665
			l20.48-3.82c36.33-6.79,69.39-24.22,95.58-50.42c71.26-71.27,71.26-187.25,0-258.52L2225.21,169.1
			c-5.08,2.75-9.79,6.24-13.99,10.44c-1.26,1.26-2.41,2.58-3.54,3.92c-0.19,0.23-0.42,0.44-0.61,0.67c-0.9,1.11-1.7,2.27-2.51,3.42
			c-0.35,0.5-0.74,0.97-1.07,1.47c-0.64,0.97-1.18,1.98-1.75,2.97c-0.42,0.73-0.9,1.44-1.28,2.18c-0.42,0.79-0.75,1.62-1.12,2.43
			c-0.46,0.98-0.96,1.94-1.36,2.94c-0.25,0.61-0.42,1.23-0.65,1.84c-0.45,1.23-0.92,2.44-1.28,3.69c-0.15,0.52-0.24,1.04-0.38,1.57
			c-0.36,1.36-0.73,2.72-0.99,4.09c-0.09,0.46-0.12,0.93-0.2,1.38c-0.25,1.45-0.49,2.9-0.63,4.36c-0.05,0.51-0.04,1.03-0.08,1.55
			c-0.1,1.41-0.2,2.83-0.2,4.24c0,0.88,0.09,1.75,0.12,2.63c0.04,1.05,0.05,2.11,0.15,3.15c0.15,1.53,0.4,3.05,0.65,4.57
			c0.07,0.39,0.1,0.78,0.17,1.17c2.2,11.42,7.72,22.33,16.54,31.16l142.19,142.18C2373.26,426.98,2384.2,453.37,2384.2,481.45z"></path></g></g><g><g><path class="st7" d="M523.71,260.45c-0.68-0.83-1.4-1.63-2.17-2.4l-74.64-74.64c-10.42-10.42-16.16-24.28-16.16-39.01
			c0-14.74,5.74-28.6,16.15-39.01c0.87-0.87,1.76-1.7,2.68-2.5c6.44-5.62,14.19-9.68,22.61-11.83l6.81-1.74
			c-0.01-11.65-0.01-26.47-0.02-30.29l-0.01-10.92l-10.74,2c-19.07,3.56-36.42,12.71-50.17,26.46c-37.41,37.42-37.41,98.3,0,135.73
			l96.11,96.1c1.55-0.84,3.03-1.83,4.43-2.93l0.8-0.69l0.1-0.02c0.7-0.59,1.39-1.2,2.04-1.85
			C533.13,291.3,533.85,272.89,523.71,260.45z"></path><path class="st7" d="M601.97,182.19c0.9,0.74,1.84,1.4,2.81,2.03c5.08,3.3,11.01,5.08,17.21,5.08c0,0,0,0,0,0
			c8.45,0,16.41-3.29,22.4-9.26l0.08-0.08c2.2-2.21,4-4.68,5.42-7.3l-96.11-96.11c-10.15-10.16-22.13-17.73-35.59-22.53l-12.13-4.32
			v43.05l4.96,2.52c5.18,2.64,9.86,6.04,13.92,10.1l74.64,74.64c0.75,0.75,1.53,1.45,2.34,2.12
			C601.92,182.16,601.95,182.17,601.97,182.19z"></path><path class="st7" d="M474.02,331.03c-5.24-2.68-9.93-6.07-13.93-10.07l-74.63-74.64c-5.99-5.99-13.95-9.28-22.42-9.28
			c-1.05,0-2.08,0.05-3.11,0.15c-0.35,0.03-0.69,0.1-1.03,0.15c-0.68,0.09-1.35,0.17-2.01,0.3c-0.4,0.08-0.79,0.19-1.19,0.29
			c-0.6,0.14-1.2,0.27-1.78,0.44c-0.41,0.12-0.81,0.28-1.22,0.42c-0.55,0.19-1.11,0.37-1.66,0.59c-0.41,0.17-0.8,0.37-1.2,0.55
			c-0.52,0.24-1.05,0.47-1.56,0.73c-0.4,0.21-0.78,0.45-1.17,0.68c-0.49,0.29-0.98,0.56-1.46,0.87c-0.39,0.25-0.75,0.54-1.13,0.81
			c-0.45,0.33-0.91,0.65-1.35,1c-0.37,0.3-0.73,0.63-1.09,0.95c-0.49,0.44-1,0.86-1.47,1.33c-2.24,2.24-4.06,4.74-5.48,7.39
			l96.12,96.12c10.16,10.16,22.14,17.74,35.59,22.53l12.13,4.32v-43.13L474.02,331.03z"></path><path class="st7" d="M554.29,281.95c0,14.74-5.74,28.59-16.16,39.02c-6.95,6.95-15.68,11.92-25.24,14.36l-6.84,1.74v41.24
			l10.75-2.01c19.07-3.56,36.43-12.71,50.18-26.47c37.41-37.42,37.41-98.3,0-135.72l-96.15-96.14c-2.67,1.45-5.14,3.28-7.35,5.48
			c-0.66,0.66-1.27,1.36-1.86,2.06c-0.1,0.12-0.22,0.23-0.32,0.35c-0.47,0.58-0.89,1.19-1.32,1.8c-0.18,0.26-0.39,0.51-0.56,0.77
			c-0.33,0.51-0.62,1.04-0.92,1.56c-0.22,0.38-0.47,0.75-0.67,1.14c-0.22,0.42-0.39,0.85-0.59,1.27c-0.24,0.51-0.5,1.02-0.71,1.54
			c-0.13,0.32-0.22,0.64-0.34,0.97c-0.24,0.64-0.48,1.28-0.67,1.94c-0.08,0.27-0.13,0.55-0.2,0.82c-0.19,0.71-0.38,1.43-0.52,2.15
			c-0.05,0.24-0.06,0.49-0.1,0.73c-0.13,0.76-0.26,1.52-0.33,2.29c-0.03,0.27-0.02,0.54-0.04,0.81c-0.05,0.74-0.1,1.48-0.1,2.23
			c0,0.46,0.05,0.92,0.07,1.38c0.02,0.55,0.03,1.11,0.08,1.66c0.08,0.8,0.21,1.6,0.34,2.4c0.04,0.2,0.05,0.41,0.09,0.61
			c1.16,6,4.05,11.72,8.68,16.36l74.65,74.64C548.55,253.36,554.29,267.21,554.29,281.95z"></path></g><text transform="matrix(1 0 0 1 53.5225 629.3276)" class="st7 st8 st9">skiesbook</text></g><text transform="matrix(1 0 0 1 -988.5273 1180.5769)" class="st7 st8" style="font-size:72px;">56BDFC</text><text transform="matrix(1 0 0 1 -531.5957 1179.8379)" class="st7 st8" style="font-size:72px;">0E63C0</text></svg>