<svg version="1.1" id="Layer_1" xmlns="http://www.w3.org/2000/svg" xmlns:xlink="http://www.w3.org/1999/xlink" x="0px" y="0px" viewBox="0 0 659 701" style="enable-background:new 0 0 659 701;" xml:space="preserve"><style type="text/css">
	.st0{fill:#56BDFC;}
	.st1{fill:#0E63C0;}
	.st2{fill:url(#SVGID_1_);}
	.st3{fill:#50BCFF;}
	.st4{fill:url(#SVGID_2_);}
	.st5{fill:url(#SVGID_3_);}
	.st6{fill:url(#SVGID_4_);}
	.st7{fill:#FFFFFF;}
</style><rect x="-3009" y="884.35" class="st0" width="447" height="557.79"></rect><rect x="-2562" y="883.61" class="st1" width="447" height="557.79"></rect><g><g><linearGradient id="SVGID_1_" gradientUnits="userSpaceOnUse" x1="-2598.0132" y1="178.2442" x2="-2457.1904" y2="178.2442"><stop offset="0" style="stop-color:#50BCFF"></stop><stop offset="1" style="stop-color:#0060C2"></stop></linearGradient><path class="st2" d="M-2464.29,260.45c-0.68-0.83-1.4-1.63-2.18-2.4l-74.64-74.64c-10.42-10.42-16.16-24.28-16.16-39.01
			c0-14.74,5.74-28.6,16.15-39.01c0.87-0.87,1.76-1.7,2.68-2.5c6.44-5.62,14.19-9.68,22.61-11.83l6.81-1.74
			c-0.01-11.65-0.01-26.47-0.02-30.29l-0.01-10.92l-10.74,2c-19.07,3.56-36.42,12.71-50.17,26.46c-37.41,37.42-37.41,98.3,0,135.73
			l96.11,96.1c1.55-0.84,3.03-1.83,4.43-2.93l0.8-0.69l0.1-0.02c0.7-0.59,1.39-1.2,2.04-1.85
			C-2454.87,291.3-2454.15,272.89-2464.29,260.45z"></path><path class="st3" d="M-2386.03,182.19c0.9,0.74,1.84,1.4,2.81,2.03c5.08,3.3,11.01,5.08,17.21,5.08c0,0,0,0,0,0
			c8.45,0,16.41-3.29,22.4-9.26l0.08-0.08c2.2-2.21,4-4.68,5.42-7.3l-96.11-96.11c-10.15-10.16-22.13-17.73-35.59-22.53l-12.13-4.32
			v43.05l4.96,2.52c5.18,2.64,9.86,6.04,13.92,10.1l74.64,74.64c0.75,0.75,1.53,1.45,2.34,2.12
			C-2386.08,182.16-2386.05,182.17-2386.03,182.19z"></path><path class="st3" d="M-2513.98,331.03c-5.24-2.68-9.93-6.07-13.93-10.07l-74.63-74.64c-5.99-5.99-13.95-9.28-22.42-9.28
			c-1.05,0-2.08,0.05-3.11,0.15c-0.35,0.03-0.69,0.1-1.03,0.15c-0.68,0.09-1.35,0.17-2.01,0.3c-0.4,0.08-0.79,0.19-1.19,0.29
			c-0.6,0.14-1.2,0.27-1.78,0.44c-0.41,0.12-0.81,0.28-1.22,0.42c-0.55,0.19-1.11,0.37-1.66,0.59c-0.41,0.17-0.8,0.37-1.2,0.55
			c-0.52,0.24-1.05,0.47-1.56,0.73c-0.4,0.21-0.78,0.45-1.17,0.68c-0.49,0.29-0.98,0.56-1.46,0.87c-0.39,0.25-0.75,0.54-1.13,0.81
			c-0.45,0.33-0.91,0.65-1.35,1c-0.37,0.3-0.73,0.63-1.09,0.95c-0.49,0.44-1,0.86-1.47,1.33c-2.24,2.24-4.06,4.74-5.48,7.39
			l96.12,96.12c10.16,10.16,22.14,17.74,35.59,22.53l12.13,4.32v-43.13L-2513.98,331.03z"></path><linearGradient id="SVGID_2_" gradientUnits="userSpaceOnUse" x1="-2533.7822" y1="248.1422" x2="-2392.9609" y2="248.1422"><stop offset="0" style="stop-color:#50BCFF"></stop><stop offset="1" style="stop-color:#0060C2"></stop></linearGradient><path class="st4" d="M-2433.71,281.95c0,14.74-5.74,28.59-16.16,39.02c-6.95,6.95-15.68,11.92-25.24,14.36l-6.84,1.74v41.24
			l10.75-2.01c19.07-3.56,36.43-12.71,50.18-26.47c37.41-37.42,37.41-98.3,0-135.72l-96.15-96.14c-2.67,1.45-5.14,3.28-7.35,5.48
			c-0.66,0.66-1.27,1.36-1.86,2.06c-0.1,0.12-0.22,0.23-0.32,0.35c-0.47,0.58-0.89,1.19-1.32,1.8c-0.18,0.26-0.39,0.51-0.56,0.77
			c-0.33,0.51-0.62,1.04-0.92,1.56c-0.22,0.38-0.47,0.75-0.67,1.14c-0.22,0.42-0.39,0.85-0.59,1.27c-0.24,0.51-0.5,1.02-0.71,1.54
			c-0.13,0.32-0.22,0.64-0.34,0.97c-0.24,0.64-0.48,1.28-0.67,1.94c-0.08,0.27-0.13,0.55-0.2,0.82c-0.19,0.71-0.38,1.43-0.52,2.15
			c-0.05,0.24-0.06,0.49-0.1,0.73c-0.13,0.76-0.26,1.52-0.33,2.29c-0.03,0.27-0.02,0.54-0.04,0.81c-0.05,0.74-0.1,1.48-0.1,2.23
			c0,0.46,0.05,0.92,0.07,1.38c0.02,0.55,0.03,1.11,0.08,1.66c0.08,0.8,0.21,1.6,0.34,2.4c0.04,0.2,0.05,0.41,0.09,0.61
			c1.16,6,4.05,11.72,8.68,16.36l74.65,74.64C-2439.45,253.36-2433.71,267.21-2433.71,281.95z"></path></g><text transform="matrix(1 0 0 1 -2934.4778 629.3276)" style="fill:#808080; font-family:&#39;Arial-BoldMT&#39;; font-size:179.5001px;">skiesbook</text></g><g><g><linearGradient id="SVGID_3_" gradientUnits="userSpaceOnUse" x1="-587.2812" y1="290.8956" x2="-347.1837" y2="290.8956"><stop offset="0" style="stop-color:#50BCFF"></stop><stop offset="1" style="stop-color:#0060C2"></stop></linearGradient><path class="st5" d="M-359.29,431.05c-1.16-1.41-2.39-2.78-3.71-4.1L-490.26,299.7c-17.76-17.77-27.55-41.39-27.55-66.52
			c0-25.13,9.78-48.76,27.54-66.52c1.48-1.48,3-2.9,4.57-4.27c10.99-9.58,24.19-16.51,38.54-20.18l11.61-2.96
			c-0.01-19.86-0.03-45.13-0.03-51.64L-435.6,69l-18.31,3.42c-32.51,6.07-62.09,21.67-85.54,45.11
			c-63.79,63.79-63.79,167.61,0,231.41l163.87,163.85c2.65-1.43,5.16-3.12,7.56-4.99l1.37-1.18l0.17-0.04
			c1.19-1.01,2.37-2.04,3.48-3.15C-343.23,483.66-342,452.27-359.29,431.05z"></path><path class="st3" d="M-225.86,297.62c1.53,1.26,3.14,2.39,4.79,3.47c8.67,5.62,18.77,8.66,29.34,8.66c0,0,0,0,0.01,0
			c14.41,0,27.98-5.61,38.19-15.79l0.13-0.13c3.76-3.77,6.82-7.98,9.23-12.44l-163.86-163.86c-17.31-17.32-37.73-30.23-60.69-38.41
			l-20.68-7.37v73.4l8.45,4.3c8.84,4.51,16.82,10.29,23.73,17.21l127.25,127.26c1.28,1.28,2.61,2.48,3.99,3.61
			C-225.94,297.56-225.9,297.59-225.86,297.62z"></path><path class="st3" d="M-444.01,551.39c-8.94-4.57-16.93-10.34-23.75-17.17l-127.25-127.25c-10.21-10.21-23.79-15.83-38.23-15.83
			c-1.78,0-3.55,0.09-5.3,0.26c-0.6,0.06-1.17,0.17-1.76,0.25c-1.15,0.15-2.3,0.29-3.43,0.51c-0.68,0.13-1.35,0.33-2.02,0.49
			c-1.02,0.24-2.04,0.46-3.04,0.76c-0.7,0.21-1.38,0.48-2.08,0.72c-0.94,0.32-1.9,0.63-2.82,1.01c-0.69,0.29-1.37,0.63-2.05,0.95
			c-0.89,0.41-1.79,0.8-2.65,1.25c-0.68,0.36-1.33,0.77-2,1.16c-0.83,0.49-1.68,0.96-2.49,1.49c-0.66,0.43-1.29,0.92-1.93,1.39
			c-0.77,0.56-1.55,1.1-2.3,1.7c-0.64,0.51-1.24,1.08-1.86,1.62c-0.84,0.74-1.7,1.47-2.5,2.27c-3.81,3.82-6.91,8.08-9.35,12.6
			l163.89,163.88c17.32,17.32,37.74,30.24,60.68,38.42l20.69,7.37V555.7L-444.01,551.39z"></path><linearGradient id="SVGID_4_" gradientUnits="userSpaceOnUse" x1="-477.7697" y1="410.0691" x2="-237.675" y2="410.0691"><stop offset="0" style="stop-color:#50BCFF"></stop><stop offset="1" style="stop-color:#0060C2"></stop></linearGradient><path class="st6" d="M-307.15,467.71c0,25.13-9.79,48.75-27.56,66.52c-11.85,11.86-26.73,20.32-43.03,24.48l-11.66,2.97V632
			l18.33-3.42c32.52-6.07,62.1-21.68,85.55-45.13c63.79-63.79,63.79-167.6,0-231.4l-163.94-163.92c-4.55,2.46-8.76,5.59-12.53,9.34
			c-1.13,1.13-2.16,2.31-3.17,3.51c-0.17,0.21-0.37,0.4-0.54,0.6c-0.8,0.99-1.52,2.03-2.25,3.07c-0.31,0.44-0.66,0.86-0.96,1.31
			c-0.57,0.86-1.05,1.77-1.57,2.66c-0.38,0.66-0.8,1.29-1.15,1.95c-0.37,0.71-0.67,1.45-1,2.17c-0.41,0.87-0.86,1.74-1.22,2.63
			c-0.22,0.54-0.38,1.1-0.58,1.65c-0.4,1.1-0.82,2.19-1.15,3.3c-0.14,0.46-0.22,0.94-0.34,1.4c-0.32,1.22-0.65,2.44-0.89,3.66
			c-0.08,0.41-0.11,0.83-0.18,1.24c-0.22,1.3-0.44,2.6-0.56,3.91c-0.05,0.46-0.04,0.92-0.07,1.38c-0.09,1.26-0.18,2.53-0.18,3.8
			c0,0.79,0.08,1.57,0.11,2.35c0.04,0.94,0.05,1.89,0.14,2.82c0.13,1.37,0.35,2.73,0.58,4.09c0.06,0.35,0.09,0.7,0.16,1.05
			c1.97,10.22,6.91,19.99,14.8,27.89l127.27,127.26C-316.94,418.96-307.15,442.58-307.15,467.71z"></path></g></g><g><g><path class="st7" d="M382.71,431.05c-1.16-1.41-2.39-2.78-3.71-4.1L251.74,299.7c-17.76-17.77-27.55-41.39-27.55-66.52
			c0-25.13,9.78-48.76,27.54-66.52c1.48-1.48,3-2.9,4.57-4.27c10.99-9.58,24.19-16.51,38.54-20.18l11.61-2.96
			c-0.01-19.86-0.03-45.13-0.03-51.64L306.4,69l-18.31,3.42c-32.51,6.07-62.09,21.67-85.54,45.11
			c-63.79,63.79-63.79,167.61,0,231.41l163.87,163.85c2.65-1.43,5.16-3.12,7.56-4.99l1.37-1.18l0.17-0.04
			c1.19-1.01,2.37-2.04,3.48-3.15C398.77,483.66,400,452.27,382.71,431.05z"></path><path class="st7" d="M516.14,297.62c1.53,1.26,3.14,2.39,4.79,3.47c8.67,5.62,18.77,8.66,29.34,8.66c0,0,0,0,0.01,0
			c14.41,0,27.98-5.61,38.19-15.79l0.13-0.13c3.76-3.77,6.82-7.98,9.23-12.44L433.97,117.53c-17.31-17.32-37.73-30.23-60.69-38.41
			l-20.68-7.37v73.4l8.45,4.3c8.84,4.51,16.82,10.29,23.73,17.21l127.25,127.26c1.28,1.28,2.61,2.48,3.99,3.61
			C516.06,297.56,516.1,297.59,516.14,297.62z"></path><path class="st7" d="M297.99,551.39c-8.94-4.57-16.93-10.34-23.75-17.17L146.99,406.97c-10.21-10.21-23.79-15.83-38.23-15.83
			c-1.78,0-3.55,0.09-5.3,0.26c-0.6,0.06-1.17,0.17-1.76,0.25c-1.15,0.15-2.3,0.29-3.43,0.51c-0.68,0.13-1.35,0.33-2.02,0.49
			c-1.02,0.24-2.04,0.46-3.04,0.76c-0.7,0.21-1.38,0.48-2.08,0.72c-0.94,0.32-1.9,0.63-2.82,1.01c-0.69,0.29-1.37,0.63-2.05,0.95
			c-0.89,0.41-1.79,0.8-2.65,1.25c-0.68,0.36-1.33,0.77-2,1.16c-0.83,0.49-1.68,0.96-2.49,1.49c-0.66,0.43-1.29,0.92-1.93,1.39
			c-0.77,0.56-1.55,1.1-2.3,1.7c-0.64,0.51-1.24,1.08-1.86,1.62c-0.84,0.74-1.7,1.47-2.5,2.27c-3.81,3.82-6.91,8.08-9.35,12.6
			l163.89,163.88c17.32,17.32,37.74,30.24,60.68,38.42l20.69,7.37V555.7L297.99,551.39z"></path><path class="st7" d="M434.85,467.71c0,25.13-9.79,48.75-27.56,66.52c-11.85,11.86-26.73,20.32-43.03,24.48l-11.66,2.97V632
			l18.33-3.42c32.52-6.07,62.1-21.68,85.55-45.13c63.79-63.79,63.79-167.6,0-231.4L292.55,188.14c-4.55,2.46-8.76,5.59-12.53,9.34
			c-1.13,1.13-2.16,2.31-3.17,3.51c-0.17,0.21-0.37,0.4-0.54,0.6c-0.8,0.99-1.52,2.03-2.25,3.07c-0.31,0.44-0.66,0.86-0.96,1.31
			c-0.57,0.86-1.05,1.77-1.57,2.66c-0.38,0.66-0.8,1.29-1.15,1.95c-0.37,0.71-0.67,1.45-1,2.17c-0.41,0.87-0.86,1.74-1.22,2.63
			c-0.22,0.54-0.38,1.1-0.58,1.65c-0.4,1.1-0.82,2.19-1.15,3.3c-0.14,0.46-0.22,0.94-0.34,1.4c-0.32,1.22-0.65,2.44-0.89,3.66
			c-0.08,0.41-0.11,0.83-0.18,1.24c-0.22,1.3-0.44,2.6-0.56,3.91c-0.05,0.46-0.04,0.92-0.07,1.38c-0.09,1.26-0.18,2.53-0.18,3.8
			c0,0.79,0.08,1.57,0.11,2.35c0.04,0.94,0.05,1.89,0.14,2.82c0.13,1.37,0.35,2.73,0.58,4.09c0.06,0.35,0.09,0.7,0.16,1.05
			c1.97,10.22,6.91,19.99,14.8,27.89l127.27,127.26C425.06,418.96,434.85,442.58,434.85,467.71z"></path></g></g><g><g><path class="st7" d="M-1413.29,260.45c-0.68-0.83-1.4-1.63-2.17-2.4l-74.64-74.64c-10.42-10.42-16.16-24.28-16.16-39.01
			c0-14.74,5.74-28.6,16.15-39.01c0.87-0.87,1.76-1.7,2.68-2.5c6.44-5.62,14.19-9.68,22.61-11.83l6.81-1.74
			c-0.01-11.65-0.01-26.47-0.02-30.29l-0.01-10.92l-10.74,2c-19.07,3.56-36.42,12.71-50.17,26.46c-37.41,37.42-37.41,98.3,0,135.73
			l96.11,96.1c1.55-0.84,3.03-1.83,4.43-2.93l0.8-0.69l0.1-0.02c0.7-0.59,1.39-1.2,2.04-1.85
			C-1403.87,291.3-1403.15,272.89-1413.29,260.45z"></path><path class="st7" d="M-1335.03,182.19c0.9,0.74,1.84,1.4,2.81,2.03c5.08,3.3,11.01,5.08,17.21,5.08c0,0,0,0,0,0
			c8.45,0,16.41-3.29,22.4-9.26l0.08-0.08c2.2-2.21,4-4.68,5.42-7.3l-96.11-96.11c-10.15-10.16-22.13-17.73-35.59-22.53l-12.13-4.32
			v43.05l4.96,2.52c5.18,2.64,9.86,6.04,13.92,10.1l74.64,74.64c0.75,0.75,1.53,1.45,2.34,2.12
			C-1335.08,182.16-1335.05,182.17-1335.03,182.19z"></path><path class="st7" d="M-1462.98,331.03c-5.24-2.68-9.93-6.07-13.93-10.07l-74.63-74.64c-5.99-5.99-13.95-9.28-22.42-9.28
			c-1.05,0-2.08,0.05-3.11,0.15c-0.35,0.03-0.69,0.1-1.03,0.15c-0.68,0.09-1.35,0.17-2.01,0.3c-0.4,0.08-0.79,0.19-1.19,0.29
			c-0.6,0.14-1.2,0.27-1.78,0.44c-0.41,0.12-0.81,0.28-1.22,0.42c-0.55,0.19-1.11,0.37-1.66,0.59c-0.41,0.17-0.8,0.37-1.2,0.55
			c-0.52,0.24-1.05,0.47-1.56,0.73c-0.4,0.21-0.78,0.45-1.17,0.68c-0.49,0.29-0.98,0.56-1.46,0.87c-0.39,0.25-0.75,0.54-1.13,0.81
			c-0.45,0.33-0.91,0.65-1.35,1c-0.37,0.3-0.73,0.63-1.09,0.95c-0.49,0.44-1,0.86-1.47,1.33c-2.24,2.24-4.06,4.74-5.48,7.39
			l96.12,96.12c10.16,10.16,22.14,17.74,35.59,22.53l12.13,4.32v-43.13L-1462.98,331.03z"></path><path class="st7" d="M-1382.71,281.95c0,14.74-5.74,28.59-16.16,39.02c-6.95,6.95-15.68,11.92-25.24,14.36l-6.84,1.74v41.24
			l10.75-2.01c19.07-3.56,36.43-12.71,50.18-26.47c37.41-37.42,37.41-98.3,0-135.72l-96.15-96.14c-2.67,1.45-5.14,3.28-7.35,5.48
			c-0.66,0.66-1.27,1.36-1.86,2.06c-0.1,0.12-0.22,0.23-0.32,0.35c-0.47,0.58-0.89,1.19-1.32,1.8c-0.18,0.26-0.39,0.51-0.56,0.77
			c-0.33,0.51-0.62,1.04-0.92,1.56c-0.22,0.38-0.47,0.75-0.67,1.14c-0.22,0.42-0.39,0.85-0.59,1.27c-0.24,0.51-0.5,1.02-0.71,1.54
			c-0.13,0.32-0.22,0.64-0.34,0.97c-0.24,0.64-0.48,1.28-0.67,1.94c-0.08,0.27-0.13,0.55-0.2,0.82c-0.19,0.71-0.38,1.43-0.52,2.15
			c-0.05,0.24-0.06,0.49-0.1,0.73c-0.13,0.76-0.26,1.52-0.33,2.29c-0.03,0.27-0.02,0.54-0.04,0.81c-0.05,0.74-0.1,1.48-0.1,2.23
			c0,0.46,0.05,0.92,0.07,1.38c0.02,0.55,0.03,1.11,0.08,1.66c0.08,0.8,0.21,1.6,0.34,2.4c0.04,0.2,0.05,0.41,0.09,0.61
			c1.16,6,4.05,11.72,8.68,16.36l74.65,74.64C-1388.45,253.36-1382.71,267.21-1382.71,281.95z"></path></g><text transform="matrix(1 0 0 1 -1883.4775 629.3276)" class="st7" style="font-family:&#39;Arial-BoldMT&#39;; font-size:179.5001px;">skiesbook</text></g><text transform="matrix(1 0 0 1 -2925.5273 1180.5769)" class="st7" style="font-family:&#39;Arial-BoldMT&#39;; font-size:72px;">56BDFC</text><text transform="matrix(1 0 0 1 -2468.5957 1179.8379)" class="st7" style="font-family:&#39;Arial-BoldMT&#39;; font-size:72px;">0E63C0</text></svg>